<mxfile host="65bd71144e">
    <diagram id="dJP1kRH32rewrPWxaQhK" name="Page-1">
        <mxGraphModel dx="2196" dy="1890" grid="1" gridSize="10" guides="1" tooltips="1" connect="1" arrows="1" fold="1" page="1" pageScale="1" pageWidth="850" pageHeight="1100" background="none" math="0" shadow="0">
            <root>
                <mxCell id="0"/>
                <mxCell id="1" parent="0"/>
                <mxCell id="2" value="" style="rounded=1;whiteSpace=wrap;html=1;fillColor=none;" vertex="1" parent="1">
                    <mxGeometry x="-10" y="-10" width="540" height="440" as="geometry"/>
                </mxCell>
                <mxCell id="1xaJ0zftZ0Pno5HAQN_E-5" style="edgeStyle=orthogonalEdgeStyle;rounded=0;orthogonalLoop=1;jettySize=auto;html=1;" parent="1" source="1xaJ0zftZ0Pno5HAQN_E-1" target="1xaJ0zftZ0Pno5HAQN_E-2" edge="1">
                    <mxGeometry relative="1" as="geometry"/>
                </mxCell>
                <mxCell id="1xaJ0zftZ0Pno5HAQN_E-6" style="edgeStyle=orthogonalEdgeStyle;rounded=0;orthogonalLoop=1;jettySize=auto;html=1;" parent="1" source="1xaJ0zftZ0Pno5HAQN_E-1" target="1xaJ0zftZ0Pno5HAQN_E-4" edge="1">
                    <mxGeometry relative="1" as="geometry"/>
                </mxCell>
                <mxCell id="1xaJ0zftZ0Pno5HAQN_E-1" value="Backend&lt;br&gt;" style="shape=image;html=1;verticalAlign=top;verticalLabelPosition=bottom;labelBackgroundColor=#ffffff;imageAspect=0;aspect=fixed;image=https://cdn0.iconfinder.com/data/icons/long-shadow-web-icons/512/nodejs-128.png" parent="1" vertex="1">
                    <mxGeometry x="100" y="40" width="100" height="100" as="geometry"/>
                </mxCell>
                <mxCell id="1xaJ0zftZ0Pno5HAQN_E-2" value="Front-end Index&lt;br&gt;( Folders to display)" style="dashed=0;outlineConnect=0;html=1;align=center;labelPosition=center;verticalLabelPosition=bottom;verticalAlign=top;shape=mxgraph.webicons.html5;gradientColor=#DFDEDE" parent="1" vertex="1">
                    <mxGeometry x="20" y="210" width="102.4" height="102.4" as="geometry"/>
                </mxCell>
                <mxCell id="1xaJ0zftZ0Pno5HAQN_E-4" value="Front-end Grid&lt;br&gt;(Title, Desc., link to images)" style="dashed=0;outlineConnect=0;html=1;align=center;labelPosition=center;verticalLabelPosition=bottom;verticalAlign=top;shape=mxgraph.webicons.html5;gradientColor=#DFDEDE" parent="1" vertex="1">
                    <mxGeometry x="180" y="210" width="102.4" height="102.4" as="geometry"/>
                </mxCell>
                <mxCell id="1xaJ0zftZ0Pno5HAQN_E-9" style="edgeStyle=orthogonalEdgeStyle;rounded=0;orthogonalLoop=1;jettySize=auto;html=1;entryX=1;entryY=0.5;entryDx=0;entryDy=0;" parent="1" source="1xaJ0zftZ0Pno5HAQN_E-7" target="1xaJ0zftZ0Pno5HAQN_E-1" edge="1">
                    <mxGeometry relative="1" as="geometry">
                        <Array as="points">
                            <mxPoint x="360" y="270"/>
                            <mxPoint x="360" y="90"/>
                        </Array>
                    </mxGeometry>
                </mxCell>
                <mxCell id="1xaJ0zftZ0Pno5HAQN_E-7" value="SQLite3&lt;br&gt;Table: Folders&lt;br&gt;(folder_name,&lt;br&gt;display_name,&lt;br&gt;description,&lt;br&gt;imgur_album_id)" style="verticalLabelPosition=bottom;html=1;verticalAlign=top;align=center;strokeColor=none;fillColor=#00BEF2;shape=mxgraph.azure.sql_database;" parent="1" vertex="1">
                    <mxGeometry x="410" y="202.87" width="87.5" height="116.67" as="geometry"/>
                </mxCell>
                <mxCell id="1xaJ0zftZ0Pno5HAQN_E-13" style="edgeStyle=orthogonalEdgeStyle;rounded=0;orthogonalLoop=1;jettySize=auto;html=1;entryX=1;entryY=0.5;entryDx=0;entryDy=0;entryPerimeter=0;" parent="1" source="1xaJ0zftZ0Pno5HAQN_E-10" target="1xaJ0zftZ0Pno5HAQN_E-7" edge="1">
                    <mxGeometry relative="1" as="geometry">
                        <Array as="points">
                            <mxPoint x="780" y="261"/>
                        </Array>
                    </mxGeometry>
                </mxCell>
                <mxCell id="1xaJ0zftZ0Pno5HAQN_E-32" value="&lt;span style=&quot;font-size: 12px; background-color: rgb(248, 249, 250);&quot;&gt;Create new entires per&amp;nbsp;Tournament&amp;nbsp;&lt;/span&gt;" style="edgeLabel;html=1;align=center;verticalAlign=middle;resizable=0;points=[];" parent="1xaJ0zftZ0Pno5HAQN_E-13" vertex="1" connectable="0">
                    <mxGeometry x="0.283" y="2" relative="1" as="geometry">
                        <mxPoint x="22" y="-2" as="offset"/>
                    </mxGeometry>
                </mxCell>
                <mxCell id="1xaJ0zftZ0Pno5HAQN_E-15" style="edgeStyle=orthogonalEdgeStyle;rounded=0;orthogonalLoop=1;jettySize=auto;html=1;" parent="1" source="1xaJ0zftZ0Pno5HAQN_E-10" target="1xaJ0zftZ0Pno5HAQN_E-11" edge="1">
                    <mxGeometry relative="1" as="geometry">
                        <mxPoint x="510" y="90" as="targetPoint"/>
                        <Array as="points">
                            <mxPoint x="780" y="90"/>
                        </Array>
                    </mxGeometry>
                </mxCell>
                <mxCell id="1xaJ0zftZ0Pno5HAQN_E-33" value="&lt;span style=&quot;font-size: 12px; background-color: rgb(248, 249, 250);&quot;&gt;Every Run&lt;/span&gt;" style="edgeLabel;html=1;align=center;verticalAlign=middle;resizable=0;points=[];" parent="1xaJ0zftZ0Pno5HAQN_E-15" vertex="1" connectable="0">
                    <mxGeometry x="0.2183" y="-2" relative="1" as="geometry">
                        <mxPoint as="offset"/>
                    </mxGeometry>
                </mxCell>
                <mxCell id="1xaJ0zftZ0Pno5HAQN_E-10" value="DIscord-Bot" style="dashed=0;outlineConnect=0;html=1;align=center;labelPosition=center;verticalLabelPosition=bottom;verticalAlign=top;shape=mxgraph.weblogos.github" parent="1" vertex="1">
                    <mxGeometry x="730" y="120" width="100" height="100" as="geometry"/>
                </mxCell>
                <mxCell id="1xaJ0zftZ0Pno5HAQN_E-12" style="edgeStyle=orthogonalEdgeStyle;rounded=0;orthogonalLoop=1;jettySize=auto;html=1;entryX=1;entryY=0.5;entryDx=0;entryDy=0;" parent="1" source="1xaJ0zftZ0Pno5HAQN_E-11" target="1xaJ0zftZ0Pno5HAQN_E-1" edge="1">
                    <mxGeometry relative="1" as="geometry"/>
                </mxCell>
                <mxCell id="1xaJ0zftZ0Pno5HAQN_E-11" value="Imgur" style="sketch=0;outlineConnect=0;fontColor=#232F3E;gradientColor=none;fillColor=#FFFFFF;strokeColor=none;dashed=0;verticalLabelPosition=bottom;verticalAlign=top;align=center;html=1;fontSize=12;fontStyle=0;aspect=fixed;pointerEvents=1;shape=mxgraph.aws4.container_registry_image;" parent="1" vertex="1">
                    <mxGeometry x="403.75" y="40" width="100" height="100" as="geometry"/>
                </mxCell>
                <mxCell id="1xaJ0zftZ0Pno5HAQN_E-18" value="&lt;span style=&quot;&quot;&gt;Upload images to imgur/&lt;/span&gt;&lt;br style=&quot;&quot;&gt;&lt;span style=&quot;&quot;&gt;Creating new albums as needed&lt;/span&gt;" style="text;html=1;strokeColor=none;fillColor=none;align=center;verticalAlign=middle;whiteSpace=wrap;rounded=0;" parent="1" vertex="1">
                    <mxGeometry x="530" y="100" width="180" height="30" as="geometry"/>
                </mxCell>
                <mxCell id="1xaJ0zftZ0Pno5HAQN_E-35" style="edgeStyle=orthogonalEdgeStyle;rounded=0;orthogonalLoop=1;jettySize=auto;html=1;" parent="1" source="1xaJ0zftZ0Pno5HAQN_E-19" target="1xaJ0zftZ0Pno5HAQN_E-21" edge="1">
                    <mxGeometry relative="1" as="geometry"/>
                </mxCell>
                <mxCell id="1xaJ0zftZ0Pno5HAQN_E-19" value="Reddit saved Posts" style="shape=image;html=1;verticalAlign=top;verticalLabelPosition=bottom;labelBackgroundColor=#ffffff;imageAspect=0;aspect=fixed;image=https://cdn2.iconfinder.com/data/icons/social-media-flat-7/64/Social-media_Reddit-128.png" parent="1" vertex="1">
                    <mxGeometry x="215" y="690" width="100" height="100" as="geometry"/>
                </mxCell>
                <mxCell id="1xaJ0zftZ0Pno5HAQN_E-22" style="edgeStyle=orthogonalEdgeStyle;rounded=0;orthogonalLoop=1;jettySize=auto;html=1;entryX=0.5;entryY=0;entryDx=0;entryDy=0;" parent="1" source="1xaJ0zftZ0Pno5HAQN_E-20" target="1xaJ0zftZ0Pno5HAQN_E-21" edge="1">
                    <mxGeometry relative="1" as="geometry"/>
                </mxCell>
                <mxCell id="1xaJ0zftZ0Pno5HAQN_E-20" value="Every 1-2 weeks" style="shape=image;html=1;verticalAlign=top;verticalLabelPosition=bottom;labelBackgroundColor=#ffffff;imageAspect=0;aspect=fixed;image=https://cdn1.iconfinder.com/data/icons/Futurosoft%20Icons%200.5.2/128x128/apps/clock.png" parent="1" vertex="1">
                    <mxGeometry x="230" y="460" width="70" height="70" as="geometry"/>
                </mxCell>
                <mxCell id="1xaJ0zftZ0Pno5HAQN_E-29" style="edgeStyle=orthogonalEdgeStyle;rounded=0;orthogonalLoop=1;jettySize=auto;html=1;entryX=-0.037;entryY=0.8;entryDx=0;entryDy=0;entryPerimeter=0;" parent="1" source="1xaJ0zftZ0Pno5HAQN_E-21" target="1xaJ0zftZ0Pno5HAQN_E-11" edge="1">
                    <mxGeometry relative="1" as="geometry">
                        <mxPoint x="380" y="110" as="targetPoint"/>
                        <Array as="points">
                            <mxPoint x="380" y="620"/>
                            <mxPoint x="380" y="120"/>
                        </Array>
                    </mxGeometry>
                </mxCell>
                <mxCell id="1xaJ0zftZ0Pno5HAQN_E-34" value="&lt;span style=&quot;font-size: 12px; background-color: rgb(248, 249, 250);&quot;&gt;Uploads Images to favs album&lt;/span&gt;" style="edgeLabel;html=1;align=center;verticalAlign=middle;resizable=0;points=[];" parent="1xaJ0zftZ0Pno5HAQN_E-29" vertex="1" connectable="0">
                    <mxGeometry x="-0.7295" relative="1" as="geometry">
                        <mxPoint x="19" as="offset"/>
                    </mxGeometry>
                </mxCell>
                <mxCell id="1xaJ0zftZ0Pno5HAQN_E-21" value="Download all saved posts&lt;br&gt;&amp;nbsp;and then unsaves them" style="shape=image;html=1;verticalAlign=top;verticalLabelPosition=bottom;labelBackgroundColor=#ffffff;imageAspect=0;aspect=fixed;image=https://cdn1.iconfinder.com/data/icons/ionicons-fill-vol-2/512/logo-python-128.png" parent="1" vertex="1">
                    <mxGeometry x="50" y="570" width="100" height="100" as="geometry"/>
                </mxCell>
                <mxCell id="3" value="&lt;font style=&quot;font-size: 24px&quot;&gt;DONE&lt;/font&gt;" style="text;html=1;strokeColor=none;fillColor=none;align=center;verticalAlign=middle;whiteSpace=wrap;rounded=0;" vertex="1" parent="1">
                    <mxGeometry x="35" y="-50" width="130" height="50" as="geometry"/>
                </mxCell>
            </root>
        </mxGraphModel>
    </diagram>
</mxfile>